<?xml version="1.0" encoding="UTF-8" standalone="no"?>
<!-- Generator: Adobe Illustrator 19.0.0, SVG Export Plug-In . SVG Version: 6.00 Build 0)  -->

<svg
   xmlns:dc="http://purl.org/dc/elements/1.1/"
   xmlns:cc="http://creativecommons.org/ns#"
   xmlns:rdf="http://www.w3.org/1999/02/22-rdf-syntax-ns#"
   xmlns:svg="http://www.w3.org/2000/svg"
   xmlns="http://www.w3.org/2000/svg"
   xmlns:sodipodi="http://sodipodi.sourceforge.net/DTD/sodipodi-0.dtd"
   xmlns:inkscape="http://www.inkscape.org/namespaces/inkscape"
   version="1.1"
   id="Layer_1"
   x="0px"
   y="0px"
   viewBox="0 0 512.0354 467.7226"
   xml:space="preserve"
   sodipodi:docname="business2.svg"
   inkscape:version="0.92.4 (5da689c313, 2019-01-14)"
   width="512.0354"
   height="467.7226"><metadata
   id="metadata911"><rdf:RDF><cc:Work
       rdf:about=""><dc:format>image/svg+xml</dc:format><dc:type
         rdf:resource="http://purl.org/dc/dcmitype/StillImage" /><dc:title></dc:title></cc:Work></rdf:RDF></metadata><defs
   id="defs909" /><sodipodi:namedview
   pagecolor="#ffffff"
   bordercolor="#666666"
   borderopacity="1"
   objecttolerance="10"
   gridtolerance="10"
   guidetolerance="10"
   inkscape:pageopacity="0"
   inkscape:pageshadow="2"
   inkscape:window-width="1920"
   inkscape:window-height="1001"
   id="namedview907"
   showgrid="false"
   inkscape:zoom="1.578125"
   inkscape:cx="205.30693"
   inkscape:cy="93.034439"
   inkscape:window-x="-9"
   inkscape:window-y="-9"
   inkscape:window-maximized="1"
   inkscape:current-layer="Layer_1"
   fit-margin-top="0"
   fit-margin-left="0"
   fit-margin-right="0"
   fit-margin-bottom="0" />
<g
   id="g868"
   style="display:inline"
   transform="translate(0,-13.267403)">
	<g
   id="g866"
   inkscape:export-filename="C:\Users\andre\Desktop\g874.png"
   inkscape:export-xdpi="238.38699"
   inkscape:export-ydpi="238.38699"
   style="fill:#000000;fill-opacity:1;stroke-width:0.37795275;stroke-miterlimit:4;stroke-dasharray:none">
		<path
   d="M 511.627,193.441 481.35392,37.701 c -1.158,-3.966 -2.89309,-24.458493 -7.02401,-24.433574 L 54.145337,15.802079 C 50.013412,15.827004 47.012,33.736 45.854,37.701 L 0.373,193.441 C 0.125,194.287 0,195.165 0,196.046 v 4.473 c 0,23.511 0.95672277,46.85565 18.859723,59.46365 L 15.691406,442.832 C 15.326891,463.86884 46.75,480.99 67.79,480.99 h 376.42 c 21.04,0 50.05127,-20.28683 50.1976,-41.32632 L 495.67493,257.448 C 513.57693,244.841 512,224.032 512,200.52 v -4.473 c 0,-0.882 -0.125,-1.76 -0.373,-2.606 z M 264.66434,57.20996 354.52266,55.30897 371.235,191.93 c 1.84,15.1 -2.888,30.29 -12.972,41.678 -10.084,11.388 -24.591,17.919 -39.801,17.919 -29.314,0 -53.164,-23.85 -53.164,-53.164 z M 140.764,191.929 158.74366,57.20996 247.96933,56.576297 246.702,198.362 c -0.26201,29.31283 -23.85,53.164 -53.165,53.164 -15.211,0 -29.717,-6.531 -39.801,-17.919 -10.083,-11.388 -14.812,-26.578 -12.972,-41.678 z M 31.902931,210.65861 V 194.20768 L 66.185644,57.843624 H 139.377 L 120.232,206.691 c -3.115,25.56 -17.27704,42.93401 -43.02704,42.93401 -28.124,0 -45.302029,-33.73097 -45.302029,-38.9664 z M 444.21,452.88905 67.79,451.62172 C 57.003061,451.58541 48.227,453.618 48.227,442.831 V 266.749 c 6.739,2.181 13.918,3.372 21.374,3.372 26.271,0 49.499,-14.705 61.328,-36.704 2.486,4.442 5.455,8.644 8.885,12.519 13.611,15.37 33.192,24.185 53.723,24.185 26.758,0 50.125,-14.731 62.463,-36.498 12.338,21.768 35.705,36.498 62.461,36.498 20.531,0 40.112,-8.816 53.723,-24.185 3.43,-3.874 6.399,-8.076 8.885,-12.519 11.828,21.999 35.058,36.704 61.328,36.704 7.456,0 14.635,-1.191 21.374,-3.372 v 176.082 h 10e-4 c 0.001,10.787 -8.77506,10.09437 -19.562,10.05805 z m 33.98608,-247.29974 c 1.75876,28.06996 -7.67308,45.93569 -35.79908,45.93569 -25.75,0 -47.516,-19.275 -50.631,-44.835 L 373.25666,54.675307 449.61634,52.774317 477.56242,197.377 Z"
   id="path864"
   inkscape:connector-curvature="0"
   style="fill:#ffffff;fill-opacity:1;stroke-width:3.02362204;stroke-miterlimit:4;stroke-dasharray:none"
   sodipodi:nodetypes="ccssccsscsssscssccccssscccccsscssccccscssscsccscsccsccccsscccc" />
	</g><g
   inkscape:groupmode="layer"
   id="layer1"
   inkscape:label="Layer 1"
   style="display:inline" />
</g><g
   inkscape:groupmode="layer"
   id="layer2"
   inkscape:label="Layer 2"
   style="display:inline"
   transform="translate(0,-13.267403)" />
<g
   id="g874"
   style="fill:#000000;fill-opacity:1;stroke:none;stroke-width:0.37795275;stroke-miterlimit:4;stroke-dasharray:none;stroke-opacity:1"
   inkscape:export-filename="C:\Users\andre\Desktop\g874.png"
   inkscape:export-xdpi="238.38699"
   inkscape:export-ydpi="238.38699"
   transform="translate(0,-13.267403)">
	<g
   id="g872"
   style="fill:#000000;fill-opacity:1;stroke:none;stroke-width:0.37795275;stroke-miterlimit:4;stroke-dasharray:none;stroke-opacity:1">
		<path
   d="M 432.754,367.297 H 380.04 c -5.135,0 -9.298,4.163 -9.298,9.298 0,5.135 4.163,9.298 9.298,9.298 h 42.414 c -4.267,19.488 -21.664,34.118 -42.414,34.118 -23.94,0 -43.416,-19.476 -43.416,-43.416 0,-23.94 19.476,-43.417 43.416,-43.417 11.597,0 22.499,4.516 30.7,12.717 3.632,3.631 9.518,3.63 13.15,0 3.631,-3.631 3.631,-9.518 0,-13.15 -11.713,-11.713 -27.285,-18.163 -43.85,-18.163 -34.194,0 -62.012,27.819 -62.012,62.013 0,34.194 27.818,62.012 62.012,62.012 34.194,0 62.011,-27.818 62.011,-62.012 0.001,-5.135 -4.162,-9.298 -9.297,-9.298 z"
   id="path870"
   inkscape:connector-curvature="0"
   style="fill:#ffffff;fill-opacity:1;stroke:none;stroke-width:0.37795275;stroke-miterlimit:4;stroke-dasharray:none;stroke-opacity:1" />
	</g>
</g>
<g
   id="g876"
   transform="translate(0,-13.267403)">
</g>
<g
   id="g878"
   transform="translate(0,-13.267403)">
</g>
<g
   id="g880"
   transform="translate(0,-13.267403)">
</g>
<g
   id="g882"
   transform="translate(0,-13.267403)">
</g>
<g
   id="g884"
   transform="translate(0,-13.267403)">
</g>
<g
   id="g886"
   transform="translate(0,-13.267403)">
</g>
<g
   id="g888"
   transform="translate(0,-13.267403)">
</g>
<g
   id="g890"
   transform="translate(0,-13.267403)">
</g>
<g
   id="g892"
   transform="translate(0,-13.267403)">
</g>
<g
   id="g894"
   transform="translate(0,-13.267403)">
</g>
<g
   id="g896"
   transform="translate(0,-13.267403)">
</g>
<g
   id="g898"
   transform="translate(0,-13.267403)">
</g>
<g
   id="g900"
   transform="translate(0,-13.267403)">
</g>
<g
   id="g902"
   transform="translate(0,-13.267403)">
</g>
<g
   id="g904"
   transform="translate(0,-13.267403)">
</g>
</svg>